<svg viewBox="0 0 1112.2000732421875 400" xmlns="http://www.w3.org/2000/svg"><g><g><g><g><g><line x1="60" y1="378" x2="55" y2="378" style="visibility: inherit;" fill="rgb(0, 0, 0)" stroke="rgb(204, 204, 204)" stroke-width="1px"></line><line x1="60" y1="324" x2="55" y2="324" style="visibility: inherit;" fill="rgb(0, 0, 0)" stroke="rgb(204, 204, 204)" stroke-width="1px"></line><line x1="60" y1="270" x2="55" y2="270" style="visibility: inherit;" fill="rgb(0, 0, 0)" stroke="rgb(204, 204, 204)" stroke-width="1px"></line><line x1="60" y1="216" x2="55" y2="216" style="visibility: inherit;" fill="rgb(0, 0, 0)" stroke="rgb(204, 204, 204)" stroke-width="1px"></line><line x1="60" y1="162" x2="55" y2="162" style="visibility: inherit;" fill="rgb(0, 0, 0)" stroke="rgb(204, 204, 204)" stroke-width="1px"></line><line x1="60" y1="108" x2="55" y2="108" style="visibility: inherit;" fill="rgb(0, 0, 0)" stroke="rgb(204, 204, 204)" stroke-width="1px"></line><line x1="60" y1="54" x2="55" y2="54" style="visibility: inherit;" fill="rgb(0, 0, 0)" stroke="rgb(204, 204, 204)" stroke-width="1px"></line><line x1="60" y1="0" x2="55" y2="0" style="visibility: inherit;" fill="rgb(0, 0, 0)" stroke="rgb(204, 204, 204)" stroke-width="1px"></line></g><g transform="translate(50, 0)"><text x="0" y="378" dx="0em" dy="0.3em" style="text-anchor: end; visibility: hidden; font-family: &quot;Helvetica Neue&quot;, sans-serif; font-size: 12px; font-weight: 200;" fill="rgb(50, 49, 63)" stroke="none" stroke-width="1px">-12</text><text x="0" y="324" dx="0em" dy="0.3em" style="text-anchor: end; visibility: inherit; font-family: &quot;Helvetica Neue&quot;, sans-serif; font-size: 12px; font-weight: 200;" fill="rgb(50, 49, 63)" stroke="none" stroke-width="1px">-11.5</text><text x="0" y="270" dx="0em" dy="0.3em" style="text-anchor: end; visibility: inherit; font-family: &quot;Helvetica Neue&quot;, sans-serif; font-size: 12px; font-weight: 200;" fill="rgb(50, 49, 63)" stroke="none" stroke-width="1px">-11</text><text x="0" y="216" dx="0em" dy="0.3em" style="text-anchor: end; visibility: inherit; font-family: &quot;Helvetica Neue&quot;, sans-serif; font-size: 12px; font-weight: 200;" fill="rgb(50, 49, 63)" stroke="none" stroke-width="1px">-10.5</text><text x="0" y="162" dx="0em" dy="0.3em" style="text-anchor: end; visibility: inherit; font-family: &quot;Helvetica Neue&quot;, sans-serif; font-size: 12px; font-weight: 200;" fill="rgb(50, 49, 63)" stroke="none" stroke-width="1px">-10</text><text x="0" y="108" dx="0em" dy="0.3em" style="text-anchor: end; visibility: inherit; font-family: &quot;Helvetica Neue&quot;, sans-serif; font-size: 12px; font-weight: 200;" fill="rgb(50, 49, 63)" stroke="none" stroke-width="1px">-9.5</text><text x="0" y="54" dx="0em" dy="0.3em" style="text-anchor: end; visibility: inherit; font-family: &quot;Helvetica Neue&quot;, sans-serif; font-size: 12px; font-weight: 200;" fill="rgb(50, 49, 63)" stroke="none" stroke-width="1px">-9</text><text x="0" y="0" dx="0em" dy="0.3em" style="text-anchor: end; visibility: hidden; font-family: &quot;Helvetica Neue&quot;, sans-serif; font-size: 12px; font-weight: 200;" fill="rgb(50, 49, 63)" stroke="none" stroke-width="1px">-8.5</text></g><line x1="60" y1="0" x2="60" y2="378" fill="rgb(0, 0, 0)" stroke="rgb(204, 204, 204)" stroke-width="1px"></line></g></g><g transform="translate(60, 0)" clip-path="url(#clip_0)"><clipPath id="clip_0"><rect width="1052" height="378"></rect></clipPath><g><g><g><line x1="0" y1="0" x2="0" y2="378" fill="rgb(0, 0, 0)" stroke="rgb(60, 60, 60)" stroke-width="1px" opacity="0.25"></line><line x1="87.68333333333334" y1="0" x2="87.68333333333334" y2="378" fill="rgb(0, 0, 0)" stroke="rgb(60, 60, 60)" stroke-width="1px" opacity="0.25"></line><line x1="175.36666666666667" y1="0" x2="175.36666666666667" y2="378" fill="rgb(0, 0, 0)" stroke="rgb(60, 60, 60)" stroke-width="1px" opacity="0.25"></line><line x1="263.05" y1="0" x2="263.05" y2="378" fill="rgb(0, 0, 0)" stroke="rgb(60, 60, 60)" stroke-width="1px" opacity="0.25"></line><line x1="350.73333333333335" y1="0" x2="350.73333333333335" y2="378" fill="rgb(0, 0, 0)" stroke="rgb(60, 60, 60)" stroke-width="1px" opacity="0.25"></line><line x1="438.4166666666667" y1="0" x2="438.4166666666667" y2="378" fill="rgb(0, 0, 0)" stroke="rgb(60, 60, 60)" stroke-width="1px" opacity="0.25"></line><line x1="526.1" y1="0" x2="526.1" y2="378" fill="rgb(0, 0, 0)" stroke="rgb(60, 60, 60)" stroke-width="1px" opacity="0.25"></line><line x1="613.7833333333334" y1="0" x2="613.7833333333334" y2="378" fill="rgb(0, 0, 0)" stroke="rgb(60, 60, 60)" stroke-width="1px" opacity="0.25"></line><line x1="701.4666666666667" y1="0" x2="701.4666666666667" y2="378" fill="rgb(0, 0, 0)" stroke="rgb(60, 60, 60)" stroke-width="1px" opacity="0.25"></line><line x1="789.1500000000001" y1="0" x2="789.1500000000001" y2="378" fill="rgb(0, 0, 0)" stroke="rgb(60, 60, 60)" stroke-width="1px" opacity="0.25"></line><line x1="876.8333333333334" y1="0" x2="876.8333333333334" y2="378" fill="rgb(0, 0, 0)" stroke="rgb(60, 60, 60)" stroke-width="1px" opacity="0.25"></line><line x1="964.5166666666667" y1="0" x2="964.5166666666667" y2="378" fill="rgb(0, 0, 0)" stroke="rgb(60, 60, 60)" stroke-width="1px" opacity="0.25"></line><line x1="1052.2" y1="0" x2="1052.2" y2="378" fill="rgb(0, 0, 0)" stroke="rgb(60, 60, 60)" stroke-width="1px" opacity="0.25"></line></g><g><line x1="0" y1="378" x2="1052.2" y2="378" fill="rgb(0, 0, 0)" stroke="rgb(60, 60, 60)" stroke-width="1px" opacity="0.25"></line><line x1="0" y1="324" x2="1052.2" y2="324" fill="rgb(0, 0, 0)" stroke="rgb(60, 60, 60)" stroke-width="1px" opacity="0.25"></line><line x1="0" y1="270" x2="1052.2" y2="270" fill="rgb(0, 0, 0)" stroke="rgb(60, 60, 60)" stroke-width="1px" opacity="0.25"></line><line x1="0" y1="216" x2="1052.2" y2="216" fill="rgb(0, 0, 0)" stroke="rgb(60, 60, 60)" stroke-width="1px" opacity="0.25"></line><line x1="0" y1="162" x2="1052.2" y2="162" fill="rgb(0, 0, 0)" stroke="rgb(60, 60, 60)" stroke-width="1px" opacity="0.25"></line><line x1="0" y1="108" x2="1052.2" y2="108" fill="rgb(0, 0, 0)" stroke="rgb(60, 60, 60)" stroke-width="1px" opacity="0.25"></line><line x1="0" y1="54" x2="1052.2" y2="54" fill="rgb(0, 0, 0)" stroke="rgb(60, 60, 60)" stroke-width="1px" opacity="0.25"></line><line x1="0" y1="0" x2="1052.2" y2="0" fill="rgb(0, 0, 0)" stroke="rgb(60, 60, 60)" stroke-width="1px" opacity="0.25"></line></g></g></g><g><g><line x1="0" y1="-918" x2="1052.2" y2="-918" fill="rgb(0, 0, 0)" stroke="rgb(153, 153, 153)" stroke-width="1.5px"></line></g></g><g><g><line x1="87.68333333333334" y1="0" x2="87.68333333333334" y2="378" fill="rgb(0, 0, 0)" stroke="rgb(153, 153, 153)" stroke-width="1.5px"></line></g></g><g><g><g><g><g><path stroke="rgb(204, 51, 17)" stroke-width="2px" d="M88.12175,331.43513488769514L110.04258333333334,300.89709091186523L131.9634166666667,278.9770541288415L153.88425,295.9354838763966L175.80508333333333,297.0376172141843L197.72591666666668,305.82420434962023L219.64675,278.4500522963659L241.56758333333335,278.9668416423493L263.4884166666667,265.0766025656389L285.40925,267.8824525879959L307.33008333333333,306.5101313484972L329.2509166666667,298.044058703115L351.17175000000003,271.34777071474497L373.0925833333333,260.7294766232768L395.01341666666667,262.16353114330593L416.93425,244.86694976259795L438.8550833333333,201.9600552859765L460.7759166666667,208.15224951394237L482.69675,192.63652545842797L504.6175833333333,188.99956794665914L526.5384166666666,181.37385326822516L548.45925,179.38283830612653L570.3800833333333,152.27663552424536L592.3009166666667,139.48352476085145L614.22175,129.18250652989224L636.1425833333334,103.34831482999346L658.0634166666666,121.55023677553481L679.98425,110.75497827048753L701.9050833333334,84.46044797702626L723.8259166666667,88.89719719626459L745.74675,105.38892017570276L767.6675833333334,89.08028073911288L789.5884166666666,85.59187097464331L811.5092500000001,89.36095155019643L833.4300833333334,89.70216816498765L855.3509166666666,79.29097394834554L877.27175,81.66591586563857L899.1925833333333,77.07755548379106L921.1134166666667,66.83345648522504L943.03425,61.293442414002925L964.9550833333334,70.77960244331484" style="fill: none;" fill="none"></path></g><g><path stroke="rgb(255, 112, 67)" stroke-width="2px" d="M88.12175,348.5855484008789L110.04258333333334,382.7840995788576L131.9634166666667,352.5118084343114L153.88425,323.63676162327044L175.80508333333333,307.05991451149595L197.72591666666668,316.3274904787862L219.64675,277.5986364234466L241.56758333333335,255.73173960284998L263.4884166666667,269.32834897241105L285.40925,293.0689287314773L307.33008333333333,273.3701362662589L329.2509166666667,276.56476881167686L351.17175000000003,268.73664961018164L373.0925833333333,247.18781988062375L395.01341666666667,239.56755168067636L416.93425,228.1428362298883L438.8550833333333,228.45030303716342L460.7759166666667,179.89046523620087L482.69675,173.551316870771L504.6175833333333,149.3044351732269L526.5384166666666,158.79150417003083L548.45925,187.02826640762947L570.3800833333333,154.1562662844969L592.3009166666667,150.57851454646163L614.22175,121.29229829346906L636.1425833333334,140.72509626795036L658.0634166666666,125.43968536581121L679.98425,112.79667088712517L701.9050833333334,94.90669009342673L723.8259166666667,101.1618300751349L745.74675,139.724343150415L767.6675833333334,117.93734768656913L789.5884166666666,94.8897024332461L811.5092500000001,72.231197824915L833.4300833333334,61.03579797026555L855.3509166666666,62.90305533950493L877.27175,64.97431765255658L899.1925833333333,42.40132482168099L921.1134166666667,36.18249867554016L943.03425,17.640836155636293L964.9550833333334,44.6859680847021" style="fill: none;" fill="none"></path></g><g><path stroke="rgb(0, 119, 187)" stroke-width="2px" d="M88.12175,395.3016128540039L110.04258333333334,312.977472782135L131.9634166666667,277.6826740965551L153.88425,289.23832314154663L175.80508333333333,282.82257186233113L197.72591666666668,287.713087705229L219.64675,284.87535205258234L241.56758333333335,279.9528795811876L263.4884166666667,265.68722490258136L285.40925,265.81376536654875L307.33008333333333,290.55070460772896L329.2509166666667,288.9059914468271L351.17175000000003,278.62728625462387L373.0925833333333,264.6635431959219L395.01341666666667,248.1068817512906L416.93425,253.00758007307869L438.8550833333333,224.85675021183155L460.7759166666667,197.8534097197898L482.69675,177.16280224146863L504.6175833333333,166.67123574486845L526.5384166666666,159.6060669884479L548.45925,146.83873307253737L570.3800833333333,142.69844640423977L592.3009166666667,123.40822356945966L614.22175,139.81669404826584L636.1425833333334,157.18563626716224L658.0634166666666,157.56132110965106L679.98425,132.82036817075652L701.9050833333334,118.6193305381529L723.8259166666667,127.49541467725223L745.74675,117.8873049049368L767.6675833333334,104.18064235014208L789.5884166666666,111.22168225509785L811.5092500000001,105.62292160719824L833.4300833333334,115.84305550817447L855.3509166666666,96.99667478531973L877.27175,93.9987952579126L899.1925833333333,96.07612652769541L921.1134166666667,106.93200559168213L943.03425,118.63167041166463L964.9550833333334,98.72954086629005" style="fill: none;" fill="none"></path></g></g></g></g><g opacity="0.2"><g><g><g><path stroke="rgb(204, 51, 17)" stroke-width="2px" d="M88.12175,331.4351348876953L110.04258333333334,282.5742645263672L131.9634166666667,257.9338188171387L153.88425,315.8785972595215L175.80508333333333,298.4765625L197.72591666666668,317.9792175292969L219.64675,239.3045768737793L241.56758333333335,279.7203254699707L263.4884166666667,244.5911979675293L285.40925,272.04881286621094L307.33008333333333,364.1012992858887L329.2509166666667,285.3910217285156L351.17175000000003,231.39050674438477L373.0925833333333,244.82283782958984L395.01341666666667,264.31292724609375L416.93425,218.93427658081055L438.8550833333333,137.61787033081052L460.7759166666667,217.43896865844727L482.69675,169.36530303955078L504.6175833333333,183.54446411132812L526.5384166666666,169.9356994628906L548.45925,176.3963813781738L570.3800833333333,111.61786651611328L592.3009166666667,120.29401016235352L614.22175,113.73105239868164L636.1425833333334,64.59713745117188L658.0634166666666,148.8530731201172L679.98425,94.56210708618164L701.9050833333334,45.0186767578125L723.8259166666667,95.55231857299805L745.74675,130.1264991760254L767.6675833333334,64.61732482910156L789.5884166666666,80.35925674438477L811.5092500000001,95.01457214355469L833.4300833333334,90.21399307250977L855.3509166666666,63.6741828918457L877.27175,85.22832870483398L899.1925833333333,70.19501495361328L921.1134166666667,51.467308044433594L943.03425,52.983421325683594L964.9550833333334,85.00884246826172" style="fill: none;" fill="none"></path></g><g><path stroke="rgb(255, 112, 67)" stroke-width="2px" d="M88.12175,348.5855484008789L110.04258333333334,403.30323028564453L131.9634166666667,323.4504089355469L153.88425,289.6797065734863L175.80508333333333,285.4171829223633L197.72591666666668,329.1478843688965L219.64675,222.21575546264648L241.56758333333335,223.84959411621094L263.4884166666667,289.3807067871094L285.40925,328.3209228515625L307.33008333333333,244.00061416625977L329.2509166666667,281.3393325805664L351.17175000000003,257.0200309753418L373.0925833333333,214.90679168701172L395.01341666666667,228.1461067199707L416.93425,211.01382064819336L438.8550833333333,228.91137313842773L460.7759166666667,107.06303787231445L482.69675,164.0435600280762L504.6175833333333,112.93632888793945L526.5384166666666,173.02158737182617L548.45925,229.3824806213379L570.3800833333333,104.84891510009766L592.3009166666667,145.21192932128903L614.22175,77.3631820678711L636.1425833333334,169.87421035766602L658.0634166666666,102.5116081237793L679.98425,93.83216857910156L701.9050833333334,68.07173538208008L723.8259166666667,110.54453659057617L745.74675,197.56809997558594L767.6675833333334,85.2568588256836L789.5884166666666,60.3182373046875L811.5092500000001,38.24344253540039L833.4300833333334,44.242698669433594L855.3509166666666,65.70394134521484L877.27175,68.08121109008789L899.1925833333333,8.54183578491211L921.1134166666667,26.854259490966797L943.03425,-10.17165756225586L964.9550833333334,85.25366592407227" style="fill: none;" fill="none"></path></g><g><path stroke="rgb(0, 119, 187)" stroke-width="2px" d="M88.12175,395.3016128540039L110.04258333333334,263.5829887390137L131.9634166666667,243.79966735839844L153.88425,302.82776641845703L175.80508333333333,274.4461669921875L197.72591666666668,294.47843170166016L219.64675,280.81734466552734L241.56758333333335,272.7758674621582L263.4884166666667,244.64815521240234L285.40925,266.0016632080078L307.33008333333333,327.4317512512207L329.2509166666667,286.44787216186523L351.17175000000003,263.24279022216797L373.0925833333333,243.7452850341797L395.01341666666667,223.29135131835938L416.93425,260.3551712036133L438.8550833333333,182.64241790771484L460.7759166666667,157.35525512695312L482.69675,146.13004302978516L504.6175833333333,150.93484497070312L526.5384166666666,149.0087013244629L548.45925,127.68815231323242L570.3800833333333,136.48809814453122L592.3009166666667,94.47311782836914L614.22175,164.42928314208987L636.1425833333334,183.23897552490234L658.0634166666666,158.12484741210938L679.98425,95.70897674560547L701.9050833333334,97.31778717041016L723.8259166666667,140.8095359802246L745.74675,103.47514343261719L767.6675833333334,83.62065124511719L789.5884166666666,121.78324127197266L811.5092500000001,97.22478103637695L833.4300833333334,131.17325592041016L855.3509166666666,68.72710418701172L877.27175,89.5019760131836L899.1925833333333,99.19212341308594L921.1134166666667,123.21582412719727L943.03425,136.18116760253906L964.9550833333334,68.87634658813477" style="fill: none;" fill="none"></path></g></g></g></g></g></g><g transform="translate(60, 378)" clip-path="url(#clip_1)"><clipPath id="clip_1"><rect width="1052" height="22"></rect></clipPath><g><g><line x1="0" y1="0" x2="0" y2="5" style="visibility: inherit;" fill="rgb(0, 0, 0)" stroke="rgb(204, 204, 204)" stroke-width="1px"></line><line x1="87.68333333333334" y1="0" x2="87.68333333333334" y2="5" style="visibility: inherit;" fill="rgb(0, 0, 0)" stroke="rgb(204, 204, 204)" stroke-width="1px"></line><line x1="175.36666666666667" y1="0" x2="175.36666666666667" y2="5" style="visibility: inherit;" fill="rgb(0, 0, 0)" stroke="rgb(204, 204, 204)" stroke-width="1px"></line><line x1="263.05" y1="0" x2="263.05" y2="5" style="visibility: inherit;" fill="rgb(0, 0, 0)" stroke="rgb(204, 204, 204)" stroke-width="1px"></line><line x1="350.73333333333335" y1="0" x2="350.73333333333335" y2="5" style="visibility: inherit;" fill="rgb(0, 0, 0)" stroke="rgb(204, 204, 204)" stroke-width="1px"></line><line x1="438.4166666666667" y1="0" x2="438.4166666666667" y2="5" style="visibility: inherit;" fill="rgb(0, 0, 0)" stroke="rgb(204, 204, 204)" stroke-width="1px"></line><line x1="526.1" y1="0" x2="526.1" y2="5" style="visibility: inherit;" fill="rgb(0, 0, 0)" stroke="rgb(204, 204, 204)" stroke-width="1px"></line><line x1="613.7833333333334" y1="0" x2="613.7833333333334" y2="5" style="visibility: inherit;" fill="rgb(0, 0, 0)" stroke="rgb(204, 204, 204)" stroke-width="1px"></line><line x1="701.4666666666667" y1="0" x2="701.4666666666667" y2="5" style="visibility: inherit;" fill="rgb(0, 0, 0)" stroke="rgb(204, 204, 204)" stroke-width="1px"></line><line x1="789.1500000000001" y1="0" x2="789.1500000000001" y2="5" style="visibility: inherit;" fill="rgb(0, 0, 0)" stroke="rgb(204, 204, 204)" stroke-width="1px"></line><line x1="876.8333333333334" y1="0" x2="876.8333333333334" y2="5" style="visibility: inherit;" fill="rgb(0, 0, 0)" stroke="rgb(204, 204, 204)" stroke-width="1px"></line><line x1="964.5166666666667" y1="0" x2="964.5166666666667" y2="5" style="visibility: inherit;" fill="rgb(0, 0, 0)" stroke="rgb(204, 204, 204)" stroke-width="1px"></line><line x1="1052.2" y1="0" x2="1052.2" y2="5" style="visibility: inherit;" fill="rgb(0, 0, 0)" stroke="rgb(204, 204, 204)" stroke-width="1px"></line></g><g transform="translate(0, 8)"><text x="0" y="0" dx="0em" dy="0.95em" style="text-anchor: middle; visibility: hidden; font-family: &quot;Helvetica Neue&quot;, sans-serif; font-size: 12px; font-weight: 200;" fill="rgb(50, 49, 63)" stroke="none" stroke-width="1px">-200</text><text x="87.68333333333334" y="0" dx="0em" dy="0.95em" style="text-anchor: middle; visibility: inherit; font-family: &quot;Helvetica Neue&quot;, sans-serif; font-size: 12px; font-weight: 200;" fill="rgb(50, 49, 63)" stroke="none" stroke-width="1px">0</text><text x="175.36666666666667" y="0" dx="0em" dy="0.95em" style="text-anchor: middle; visibility: inherit; font-family: &quot;Helvetica Neue&quot;, sans-serif; font-size: 12px; font-weight: 200;" fill="rgb(50, 49, 63)" stroke="none" stroke-width="1px">200</text><text x="263.05" y="0" dx="0em" dy="0.95em" style="text-anchor: middle; visibility: inherit; font-family: &quot;Helvetica Neue&quot;, sans-serif; font-size: 12px; font-weight: 200;" fill="rgb(50, 49, 63)" stroke="none" stroke-width="1px">400</text><text x="350.73333333333335" y="0" dx="0em" dy="0.95em" style="text-anchor: middle; visibility: inherit; font-family: &quot;Helvetica Neue&quot;, sans-serif; font-size: 12px; font-weight: 200;" fill="rgb(50, 49, 63)" stroke="none" stroke-width="1px">600</text><text x="438.4166666666667" y="0" dx="0em" dy="0.95em" style="text-anchor: middle; visibility: inherit; font-family: &quot;Helvetica Neue&quot;, sans-serif; font-size: 12px; font-weight: 200;" fill="rgb(50, 49, 63)" stroke="none" stroke-width="1px">800</text><text x="526.1" y="0" dx="0em" dy="0.95em" style="text-anchor: middle; visibility: inherit; font-family: &quot;Helvetica Neue&quot;, sans-serif; font-size: 12px; font-weight: 200;" fill="rgb(50, 49, 63)" stroke="none" stroke-width="1px">1k</text><text x="613.7833333333334" y="0" dx="0em" dy="0.95em" style="text-anchor: middle; visibility: inherit; font-family: &quot;Helvetica Neue&quot;, sans-serif; font-size: 12px; font-weight: 200;" fill="rgb(50, 49, 63)" stroke="none" stroke-width="1px">1.2k</text><text x="701.4666666666667" y="0" dx="0em" dy="0.95em" style="text-anchor: middle; visibility: inherit; font-family: &quot;Helvetica Neue&quot;, sans-serif; font-size: 12px; font-weight: 200;" fill="rgb(50, 49, 63)" stroke="none" stroke-width="1px">1.4k</text><text x="789.1500000000001" y="0" dx="0em" dy="0.95em" style="text-anchor: middle; visibility: inherit; font-family: &quot;Helvetica Neue&quot;, sans-serif; font-size: 12px; font-weight: 200;" fill="rgb(50, 49, 63)" stroke="none" stroke-width="1px">1.6k</text><text x="876.8333333333334" y="0" dx="0em" dy="0.95em" style="text-anchor: middle; visibility: inherit; font-family: &quot;Helvetica Neue&quot;, sans-serif; font-size: 12px; font-weight: 200;" fill="rgb(50, 49, 63)" stroke="none" stroke-width="1px">1.8k</text><text x="964.5166666666667" y="0" dx="0em" dy="0.95em" style="text-anchor: middle; visibility: inherit; font-family: &quot;Helvetica Neue&quot;, sans-serif; font-size: 12px; font-weight: 200;" fill="rgb(50, 49, 63)" stroke="none" stroke-width="1px">2k</text><text x="1052.2" y="0" dx="0em" dy="0.95em" style="text-anchor: middle; visibility: hidden; font-family: &quot;Helvetica Neue&quot;, sans-serif; font-size: 12px; font-weight: 200;" fill="rgb(50, 49, 63)" stroke="none" stroke-width="1px">2.2k</text></g><line x1="0" y1="0" x2="1052.2" y2="0" fill="rgb(0, 0, 0)" stroke="rgb(204, 204, 204)" stroke-width="1px"></line></g></g></g></g></svg>