<svg viewBox="0 0 1112.2000732421875 400" xmlns="http://www.w3.org/2000/svg"><g><g><g><g><g><line x1="60" y1="378" x2="55" y2="378" style="visibility: inherit;" fill="rgb(0, 0, 0)" stroke="rgb(204, 204, 204)" stroke-width="1px"></line><line x1="60" y1="340.2" x2="55" y2="340.2" style="visibility: inherit;" fill="rgb(0, 0, 0)" stroke="rgb(204, 204, 204)" stroke-width="1px"></line><line x1="60" y1="302.4" x2="55" y2="302.4" style="visibility: inherit;" fill="rgb(0, 0, 0)" stroke="rgb(204, 204, 204)" stroke-width="1px"></line><line x1="60" y1="264.6" x2="55" y2="264.6" style="visibility: inherit;" fill="rgb(0, 0, 0)" stroke="rgb(204, 204, 204)" stroke-width="1px"></line><line x1="60" y1="226.79999999999998" x2="55" y2="226.79999999999998" style="visibility: inherit;" fill="rgb(0, 0, 0)" stroke="rgb(204, 204, 204)" stroke-width="1px"></line><line x1="60" y1="189" x2="55" y2="189" style="visibility: inherit;" fill="rgb(0, 0, 0)" stroke="rgb(204, 204, 204)" stroke-width="1px"></line><line x1="60" y1="151.20000000000002" x2="55" y2="151.20000000000002" style="visibility: inherit;" fill="rgb(0, 0, 0)" stroke="rgb(204, 204, 204)" stroke-width="1px"></line><line x1="60" y1="113.40000000000003" x2="55" y2="113.40000000000003" style="visibility: inherit;" fill="rgb(0, 0, 0)" stroke="rgb(204, 204, 204)" stroke-width="1px"></line><line x1="60" y1="75.59999999999997" x2="55" y2="75.59999999999997" style="visibility: inherit;" fill="rgb(0, 0, 0)" stroke="rgb(204, 204, 204)" stroke-width="1px"></line><line x1="60" y1="37.80000000000001" x2="55" y2="37.80000000000001" style="visibility: inherit;" fill="rgb(0, 0, 0)" stroke="rgb(204, 204, 204)" stroke-width="1px"></line><line x1="60" y1="0" x2="55" y2="0" style="visibility: inherit;" fill="rgb(0, 0, 0)" stroke="rgb(204, 204, 204)" stroke-width="1px"></line></g><g transform="translate(50, 0)"><text x="0" y="378" dx="0em" dy="0.3em" style="text-anchor: end; visibility: hidden; font-family: &quot;Helvetica Neue&quot;, sans-serif; font-size: 12px; font-weight: 200;" fill="rgb(50, 49, 63)" stroke="none" stroke-width="1px">-12</text><text x="0" y="340.2" dx="0em" dy="0.3em" style="text-anchor: end; visibility: inherit; font-family: &quot;Helvetica Neue&quot;, sans-serif; font-size: 12px; font-weight: 200;" fill="rgb(50, 49, 63)" stroke="none" stroke-width="1px">-11.5</text><text x="0" y="302.4" dx="0em" dy="0.3em" style="text-anchor: end; visibility: inherit; font-family: &quot;Helvetica Neue&quot;, sans-serif; font-size: 12px; font-weight: 200;" fill="rgb(50, 49, 63)" stroke="none" stroke-width="1px">-11</text><text x="0" y="264.6" dx="0em" dy="0.3em" style="text-anchor: end; visibility: inherit; font-family: &quot;Helvetica Neue&quot;, sans-serif; font-size: 12px; font-weight: 200;" fill="rgb(50, 49, 63)" stroke="none" stroke-width="1px">-10.5</text><text x="0" y="226.79999999999998" dx="0em" dy="0.3em" style="text-anchor: end; visibility: inherit; font-family: &quot;Helvetica Neue&quot;, sans-serif; font-size: 12px; font-weight: 200;" fill="rgb(50, 49, 63)" stroke="none" stroke-width="1px">-10</text><text x="0" y="189" dx="0em" dy="0.3em" style="text-anchor: end; visibility: inherit; font-family: &quot;Helvetica Neue&quot;, sans-serif; font-size: 12px; font-weight: 200;" fill="rgb(50, 49, 63)" stroke="none" stroke-width="1px">-9.5</text><text x="0" y="151.20000000000002" dx="0em" dy="0.3em" style="text-anchor: end; visibility: inherit; font-family: &quot;Helvetica Neue&quot;, sans-serif; font-size: 12px; font-weight: 200;" fill="rgb(50, 49, 63)" stroke="none" stroke-width="1px">-9</text><text x="0" y="113.40000000000003" dx="0em" dy="0.3em" style="text-anchor: end; visibility: inherit; font-family: &quot;Helvetica Neue&quot;, sans-serif; font-size: 12px; font-weight: 200;" fill="rgb(50, 49, 63)" stroke="none" stroke-width="1px">-8.5</text><text x="0" y="75.59999999999997" dx="0em" dy="0.3em" style="text-anchor: end; visibility: inherit; font-family: &quot;Helvetica Neue&quot;, sans-serif; font-size: 12px; font-weight: 200;" fill="rgb(50, 49, 63)" stroke="none" stroke-width="1px">-8</text><text x="0" y="37.80000000000001" dx="0em" dy="0.3em" style="text-anchor: end; visibility: inherit; font-family: &quot;Helvetica Neue&quot;, sans-serif; font-size: 12px; font-weight: 200;" fill="rgb(50, 49, 63)" stroke="none" stroke-width="1px">-7.5</text><text x="0" y="0" dx="0em" dy="0.3em" style="text-anchor: end; visibility: hidden; font-family: &quot;Helvetica Neue&quot;, sans-serif; font-size: 12px; font-weight: 200;" fill="rgb(50, 49, 63)" stroke="none" stroke-width="1px">-7</text></g><line x1="60" y1="0" x2="60" y2="378" fill="rgb(0, 0, 0)" stroke="rgb(204, 204, 204)" stroke-width="1px"></line></g></g><g transform="translate(60, 0)" clip-path="url(#clip_0)"><clipPath id="clip_0"><rect width="1052" height="378"></rect></clipPath><g><g><g><line x1="0" y1="0" x2="0" y2="378" fill="rgb(0, 0, 0)" stroke="rgb(60, 60, 60)" stroke-width="1px" opacity="0.25"></line><line x1="87.68333333333334" y1="0" x2="87.68333333333334" y2="378" fill="rgb(0, 0, 0)" stroke="rgb(60, 60, 60)" stroke-width="1px" opacity="0.25"></line><line x1="175.36666666666667" y1="0" x2="175.36666666666667" y2="378" fill="rgb(0, 0, 0)" stroke="rgb(60, 60, 60)" stroke-width="1px" opacity="0.25"></line><line x1="263.05" y1="0" x2="263.05" y2="378" fill="rgb(0, 0, 0)" stroke="rgb(60, 60, 60)" stroke-width="1px" opacity="0.25"></line><line x1="350.73333333333335" y1="0" x2="350.73333333333335" y2="378" fill="rgb(0, 0, 0)" stroke="rgb(60, 60, 60)" stroke-width="1px" opacity="0.25"></line><line x1="438.4166666666667" y1="0" x2="438.4166666666667" y2="378" fill="rgb(0, 0, 0)" stroke="rgb(60, 60, 60)" stroke-width="1px" opacity="0.25"></line><line x1="526.1" y1="0" x2="526.1" y2="378" fill="rgb(0, 0, 0)" stroke="rgb(60, 60, 60)" stroke-width="1px" opacity="0.25"></line><line x1="613.7833333333334" y1="0" x2="613.7833333333334" y2="378" fill="rgb(0, 0, 0)" stroke="rgb(60, 60, 60)" stroke-width="1px" opacity="0.25"></line><line x1="701.4666666666667" y1="0" x2="701.4666666666667" y2="378" fill="rgb(0, 0, 0)" stroke="rgb(60, 60, 60)" stroke-width="1px" opacity="0.25"></line><line x1="789.1500000000001" y1="0" x2="789.1500000000001" y2="378" fill="rgb(0, 0, 0)" stroke="rgb(60, 60, 60)" stroke-width="1px" opacity="0.25"></line><line x1="876.8333333333334" y1="0" x2="876.8333333333334" y2="378" fill="rgb(0, 0, 0)" stroke="rgb(60, 60, 60)" stroke-width="1px" opacity="0.25"></line><line x1="964.5166666666667" y1="0" x2="964.5166666666667" y2="378" fill="rgb(0, 0, 0)" stroke="rgb(60, 60, 60)" stroke-width="1px" opacity="0.25"></line><line x1="1052.2" y1="0" x2="1052.2" y2="378" fill="rgb(0, 0, 0)" stroke="rgb(60, 60, 60)" stroke-width="1px" opacity="0.25"></line></g><g><line x1="0" y1="378" x2="1052.2" y2="378" fill="rgb(0, 0, 0)" stroke="rgb(60, 60, 60)" stroke-width="1px" opacity="0.25"></line><line x1="0" y1="340.2" x2="1052.2" y2="340.2" fill="rgb(0, 0, 0)" stroke="rgb(60, 60, 60)" stroke-width="1px" opacity="0.25"></line><line x1="0" y1="302.4" x2="1052.2" y2="302.4" fill="rgb(0, 0, 0)" stroke="rgb(60, 60, 60)" stroke-width="1px" opacity="0.25"></line><line x1="0" y1="264.6" x2="1052.2" y2="264.6" fill="rgb(0, 0, 0)" stroke="rgb(60, 60, 60)" stroke-width="1px" opacity="0.25"></line><line x1="0" y1="226.79999999999998" x2="1052.2" y2="226.79999999999998" fill="rgb(0, 0, 0)" stroke="rgb(60, 60, 60)" stroke-width="1px" opacity="0.25"></line><line x1="0" y1="189" x2="1052.2" y2="189" fill="rgb(0, 0, 0)" stroke="rgb(60, 60, 60)" stroke-width="1px" opacity="0.25"></line><line x1="0" y1="151.20000000000002" x2="1052.2" y2="151.20000000000002" fill="rgb(0, 0, 0)" stroke="rgb(60, 60, 60)" stroke-width="1px" opacity="0.25"></line><line x1="0" y1="113.40000000000003" x2="1052.2" y2="113.40000000000003" fill="rgb(0, 0, 0)" stroke="rgb(60, 60, 60)" stroke-width="1px" opacity="0.25"></line><line x1="0" y1="75.59999999999997" x2="1052.2" y2="75.59999999999997" fill="rgb(0, 0, 0)" stroke="rgb(60, 60, 60)" stroke-width="1px" opacity="0.25"></line><line x1="0" y1="37.80000000000001" x2="1052.2" y2="37.80000000000001" fill="rgb(0, 0, 0)" stroke="rgb(60, 60, 60)" stroke-width="1px" opacity="0.25"></line><line x1="0" y1="0" x2="1052.2" y2="0" fill="rgb(0, 0, 0)" stroke="rgb(60, 60, 60)" stroke-width="1px" opacity="0.25"></line></g></g></g><g><g><line x1="0" y1="-529.1999999999999" x2="1052.2" y2="-529.1999999999999" fill="rgb(0, 0, 0)" stroke="rgb(153, 153, 153)" stroke-width="1.5px"></line></g></g><g><g><line x1="87.68333333333334" y1="0" x2="87.68333333333334" y2="378" fill="rgb(0, 0, 0)" stroke="rgb(153, 153, 153)" stroke-width="1.5px"></line></g></g><g><g><g><g><g><path stroke="rgb(0, 119, 187)" stroke-width="2px" d="M87.85870000000001,369.79743576049793L96.62703333333334,343.3854510784149L105.39536666666667,324.1396710532052L114.1637,327.73387824086575L122.93203333333334,311.06473081166513L131.7003666666667,310.02495308209194L140.4687,309.4174219582726L149.23703333333336,311.0779811868647L158.00536666666667,295.5102502100792L166.77370000000002,303.02795507922247L175.54203333333334,295.9988243636451L184.31036666666668,287.7080659842753L193.0787,278.7396716553071L201.84703333333334,256.1651822022684L210.61536666666666,253.07452290001856L219.3837,234.96494021588182L228.15203333333332,218.65181138227445L236.92036666666667,233.65448351645395L245.6887,215.79633152024434L254.45703333333336,202.53009936962357L263.2253666666667,193.50155235888238L271.99370000000005,224.1367119903738L280.7620333333333,218.72079789967637L289.5303666666667,202.69228880746311L298.2987,220.72420293107683L307.06703333333337,217.43312484828135L315.8353666666667,201.9078056437101L324.6037,192.03559651321262L333.3720333333334,190.44864064839868L342.1403666666667,171.0483722998528L350.9087,175.25363514377085L359.6770333333333,178.71660152788385L368.4453666666667,187.83227824655305L377.2137,176.99207018959316L385.98203333333333,172.6876199694468L394.75036666666665,172.66915065579397L403.5187,180.8321691549319L412.28703333333334,174.71966890190296L421.0553666666667,165.85587999571044L429.8237,163.0881665130137L438.59203333333335,162.70084287014413L447.3603666666667,167.34690159834577L456.12870000000004,169.30229775888844L464.89703333333335,157.2500055148174L473.66536666666667,154.9660085576765L482.43370000000004,139.96056506408985L491.20203333333336,134.56461037003916L499.9703666666667,139.55526860250674L508.7387,135.15271987726487L517.5070333333333,113.45280624258987L526.2753666666666,119.64778115769326L535.0437,133.59105730549635L543.8120333333334,139.84504835425597L552.5803666666667,166.29613072766915L561.3487,156.62086462433953L570.1170333333333,131.47184219988716L578.8853666666668,123.28083069224488L587.6537000000001,121.48439502179201L596.4220333333333,113.28488811170746L605.1903666666667,120.58705515096034L613.9587,116.73349133032212L622.7270333333333,123.6375832015137L631.4953666666667,110.18869951807602L640.2637000000001,101.67686198379488L649.0320333333334,127.29275689974952L657.8003666666667,126.54832503828723L666.5686999999999,105.22315868874387L675.3370333333334,118.59718760216236L684.1053666666667,119.39109179713722L692.8737,107.13848503433707L701.6420333333333,110.81214207651044L710.4103666666667,84.99458306695124L719.1787,84.59526622811023L727.9470333333334,84.39440705131915L736.7153666666668,88.92575555891653L745.4837,84.60770614296712L754.2520333333333,80.42952854723052L763.0203666666666,84.47009521061358L771.7887000000001,70.76398484548434L780.5570333333334,78.95653574371647L789.3253666666667,84.31494851532159L798.0937,84.85969634307963L806.8620333333334,74.93905709417788L815.6303666666668,73.27627506156045L824.3987,73.15411800324483L833.1670333333333,76.41629770624382L841.9353666666667,83.51204302804325L850.7037,82.35142869768526L859.4720333333333,64.67500951658485L868.2403666666668,80.43305166942349L877.0087000000001,84.43330512274781L885.7770333333334,85.52753571647105L894.5453666666666,61.335271963940215L903.3137,71.05781692592268L912.0820333333334,72.59656576590515L920.8503666666667,75.97321594880088L929.6187,101.21425809100919L938.3870333333334,87.84712480089462L947.1553666666667,78.07303753007295L955.9237,91.6236949545671L964.6920333333334,84.81694379463954" style="fill: none;" fill="none"></path></g><g><path stroke="rgb(255, 112, 67)" stroke-width="2px" d="M87.85870000000001,330.3737216949463L96.62703333333334,327.94740614891055L105.39536666666667,322.0319351741245L114.1637,340.5332992820179L122.93203333333334,315.16821268916874L131.7003666666667,316.76719892150487L140.4687,301.21649859690945L149.23703333333336,296.93107463591616L158.00536666666667,283.49167229913775L166.77370000000002,271.9638285798455L175.54203333333334,271.31748635599973L184.31036666666668,278.8079116461898L193.0787,279.1449479226693L201.84703333333334,258.4370560370771L210.61536666666666,236.95347819172383L219.3837,231.87453684132277L228.15203333333332,212.38418610102275L236.92036666666667,211.39594535254318L245.6887,197.22201539894715L254.45703333333336,197.84090261271504L263.2253666666667,190.0353166869734L271.99370000000005,191.11974218840936L280.7620333333333,174.74254666585938L289.5303666666667,169.96943864076627L298.2987,166.77710988860653L307.06703333333337,164.69534532883125L315.8353666666667,167.0175838721834L324.6037,163.88736389178263L333.3720333333334,168.65598744439507L342.1403666666667,150.96698195815884L350.9087,152.25320570292746L359.6770333333333,154.9525750342952L368.4453666666667,151.4469093856454L377.2137,145.33634430885138L385.98203333333333,120.3373682893498L394.75036666666665,127.97385934583289L403.5187,107.57098967556936L412.28703333333334,111.8586930644268L421.0553666666667,111.21113990947907L429.8237,114.06862303642123L438.59203333333335,114.34528133550225L447.3603666666667,107.71917532887454L456.12870000000004,115.77478522894751L464.89703333333335,112.5986647769551L473.66536666666667,116.25966197080157L482.43370000000004,102.0011824660155L491.20203333333336,110.7079178844761L499.9703666666667,153.7092050773543L508.7387,111.47094350177622L517.5070333333333,101.41846896353337L526.2753666666666,117.96434584353221L535.0437,100.88725977352567L543.8120333333334,94.7752821946712L552.5803666666667,106.4537905326352L561.3487,101.61528823559371L570.1170333333333,100.73761532416847L578.8853666666668,79.09798469132227L587.6537000000001,87.27132819882763L596.4220333333333,99.05940321202223L605.1903666666667,92.32139967867772L613.9587,114.94664290779326L622.7270333333333,105.98379262944133L631.4953666666667,108.35065277493038L640.2637000000001,103.2743552880051L649.0320333333334,96.25841169575227L657.8003666666667,85.19817232262716L666.5686999999999,77.30761387331256L675.3370333333334,117.01319579591137L684.1053666666667,92.45561919873813L692.8737,92.21716790596173L701.6420333333333,88.41034758805944L710.4103666666667,88.46225225400758L719.1787,84.10783139390861L727.9470333333334,81.66861729337626L736.7153666666668,82.03533419438526L745.4837,86.25860789578155L754.2520333333333,79.64907419181463L763.0203666666666,86.2181948202645L771.7887000000001,81.85809828864319L780.5570333333334,93.42416363016832L789.3253666666667,82.951886560059L798.0937,81.79416767211939L806.8620333333334,71.01125470788583L815.6303666666668,80.0883401965578L824.3987,76.42353756520026L833.1670333333333,89.94641288335839L841.9353666666667,85.92501493582557L850.7037,82.035613667306L859.4720333333333,59.884398901067186L868.2403666666668,73.28816085553291L877.0087000000001,65.19813638148383L885.7770333333334,108.23308104764027L894.5453666666666,89.33090194279305L903.3137,76.04771291860544L912.0820333333334,76.86810483246205L920.8503666666667,61.88035577362268L929.6187,70.05356731549199L938.3870333333334,66.20430484852369L947.1553666666667,54.21650022173628L955.9237,53.965636674789835L964.6920333333334,63.71094236864337" style="fill: none;" fill="none"></path></g></g></g></g><g opacity="0.2"><g><g><g><path stroke="rgb(0, 119, 187)" stroke-width="2px" d="M87.85870000000001,369.79743576049805L96.62703333333334,327.53826026916505L105.39536666666667,305.6637222290039L114.1637,331.9606658935547L122.93203333333334,289.3014919281006L131.7003666666667,308.58656616210936L140.4687,308.5486427307129L149.23703333333336,313.4990924835205L158.00536666666667,272.55087089538574L166.77370000000002,314.1908706665039L175.54203333333334,285.5188819885254L184.31036666666668,275.31704635620116L193.0787,265.3163635253906L201.84703333333334,222.34767379760743L210.61536666666666,248.44216690063476L219.3837,207.813338470459L228.15203333333332,194.18902130126955L236.92036666666667,256.15468254089353L245.6887,189.01182403564454L254.45703333333336,182.6319637298584L263.2253666666667,179.9592269897461L271.99370000000005,270.0884433746338L280.7620333333333,210.59703369140627L289.5303666666667,178.64971504211425L298.2987,247.77194595336914L307.06703333333337,212.4965217590332L315.8353666666667,178.61986656188967L324.6037,177.22729797363283L333.3720333333334,188.06820831298828L342.1403666666667,141.94798049926757L350.9087,181.5615280151367L359.6770333333333,183.91105041503906L368.4453666666667,201.50579223632812L377.2137,160.73175888061522L385.98203333333333,166.23094482421877L394.75036666666665,172.641446685791L403.5187,193.07669677734376L412.28703333333334,165.55091857910156L421.0553666666667,152.560196685791L429.8237,158.93659629821778L438.59203333333335,162.1198574066162L447.3603666666667,174.3159896850586L456.12870000000004,172.23539199829102L464.89703333333335,139.17156715393068L473.66536666666667,151.54001312255858L482.43370000000004,117.45239982604977L491.20203333333336,126.47067832946777L499.9703666666667,147.04125595092773L508.7387,128.54889678955078L517.5070333333333,80.90293579101564L526.2753666666666,128.94024353027342L535.0437,154.5059715270996L543.8120333333334,149.22603492736815L552.5803666666667,205.9727542877197L561.3487,142.10796546936035L570.1170333333333,93.74830856323246L578.8853666666668,110.99431343078612L587.6537000000001,118.78974151611328L596.4220333333333,100.985627746582L605.1903666666667,131.54030570983886L613.9587,110.9531455993652L622.7270333333333,133.99372100830078L631.4953666666667,90.01537399291993L640.2637000000001,88.90910568237308L649.0320333333334,165.71659927368162L657.8003666666667,125.43167724609376L666.5686999999999,73.23540916442875L675.3370333333334,138.65823097229006L684.1053666666667,120.58194808959962L692.8737,88.75957489013672L701.6420333333333,116.32262763977047L710.4103666666667,46.268244552612316L719.1787,83.99629096984864L727.9470333333334,84.09311828613278L736.7153666666668,95.7227783203125L745.4837,78.13063201904293L754.2520333333333,74.16226215362548L763.0203666666666,90.53094520568851L771.7887000000001,50.20481929779049L780.5570333333334,91.24536209106446L789.3253666666667,92.35256767272949L798.0937,85.67681808471679L806.8620333333334,60.05809822082523L815.6303666666668,70.78210201263431L824.3987,72.97088241577148L833.1670333333333,81.3095672607422L841.9353666666667,94.15566101074222L850.7037,80.61050720214843L859.4720333333333,38.160380744934116L868.2403666666668,104.07011489868165L877.0087000000001,90.43368530273438L885.7770333333334,87.16888160705565L894.5453666666666,25.046876335144077L903.3137,85.64163436889652L912.0820333333334,74.9046890258789L920.8503666666667,81.03819122314457L929.6187,139.0758213043213L938.3870333333334,67.79642486572266L947.1553666666667,63.411906623840366L955.9237,111.9496810913086L964.6920333333334,74.60681705474855" style="fill: none;" fill="none"></path></g><g><path stroke="rgb(255, 112, 67)" stroke-width="2px" d="M87.85870000000001,330.3737216949463L96.62703333333334,326.4916168212891L105.39536666666667,316.35308303833006L114.1637,362.29090347290037L122.93203333333334,282.0515556335449L131.7003666666667,318.97917251586915L140.4687,278.9787483215332L149.23703333333336,290.68288536071776L158.00536666666667,263.6711643218994L166.77370000000002,254.84632415771483L175.54203333333334,270.35383529663085L184.31036666666668,290.00278701782224L193.0787,279.64940185546874L201.84703333333334,227.4157871246338L210.61536666666666,204.75336456298828L219.3837,224.25970687866212L228.15203333333332,183.1569076538086L236.92036666666667,209.91383514404296L245.6887,175.9632797241211L254.45703333333336,198.76917686462403L263.2253666666667,178.32736587524414L271.99370000000005,192.7463447570801L280.7620333333333,150.1770767211914L289.5303666666667,162.8098331451416L298.2987,161.98863945007324L307.06703333333337,161.57270736694338L315.8353666666667,170.50093574523927L324.6037,159.19203872680666L333.3720333333334,175.8089183807373L342.1403666666667,124.43348350524903L350.9087,154.1825408935547L359.6770333333333,159.0016284942627L368.4453666666667,146.18841133117675L377.2137,136.17049713134767L385.98203333333333,82.83890533447266L394.75036666666665,139.4285957336426L403.5187,76.96668548583983L412.28703333333334,118.29024810791014L421.0553666666667,110.23981018066405L429.8237,118.35484771728517L438.59203333333335,114.7602687835693L447.3603666666667,97.78001632690433L456.12870000000004,127.85820007324219L464.89703333333335,107.8344841003418L473.66536666666667,121.75115776062012L482.43370000000004,80.61346321105958L491.20203333333336,123.76802101135254L499.9703666666667,218.2111358642578L508.7387,48.11355113983154L517.5070333333333,86.33975715637206L526.2753666666666,142.78316116333008L535.0437,75.27163066864017L543.8120333333334,85.60731582641603L552.5803666666667,123.9715530395508L561.3487,94.3575347900391L570.1170333333333,99.42110595703122L578.8853666666668,46.638538742065464L587.6537000000001,99.53134346008301L596.4220333333333,116.74151573181149L605.1903666666667,82.21439437866212L613.9587,148.88450775146484L622.7270333333333,92.53951721191407L631.4953666666667,111.90094299316405L640.2637000000001,95.6599090576172L649.0320333333334,85.73449630737304L657.8003666666667,68.60781326293949L666.5686999999999,65.47177619934081L675.3370333333334,176.5715686798096L684.1053666666667,55.619254302978504L692.8737,91.85949096679684L701.6420333333333,82.70011711120605L710.4103666666667,88.54010925292965L719.1787,77.57620010375973L727.9470333333334,78.00979614257812L736.7153666666668,82.58540954589847L745.4837,92.59351844787597L754.2520333333333,69.73477363586426L763.0203666666666,96.07187576293944L771.7887000000001,75.31795349121097L780.5570333333334,110.77326164245602L789.3253666666667,67.24347095489503L798.0937,80.05758934020997L806.8620333333334,54.836885261535656L815.6303666666668,93.70396842956546L824.3987,70.92633361816405L833.1670333333333,110.23072586059567L841.9353666666667,79.8929180145264L850.7037,76.2015117645264L859.4720333333333,26.657576751708973L868.2403666666668,93.39380378723143L877.0087000000001,53.06309967041017L885.7770333333334,172.785498046875L894.5453666666666,60.97763328552247L903.3137,56.12292938232423L912.0820333333334,78.09869270324708L920.8503666666667,39.39873218536377L929.6187,82.31338462829586L938.3870333333334,60.4304111480713L947.1553666666667,36.23479328155514L955.9237,53.589341354370106L964.6920333333334,78.3289009094238" style="fill: none;" fill="none"></path></g></g></g></g></g><g><g opacity="0.458528"><span fill="rgb(0, 0, 0)" stroke="none" stroke-width="1px">Alt + Scroll to Zoom</span></g></g></g><g transform="translate(60, 378)" clip-path="url(#clip_1)"><clipPath id="clip_1"><rect width="1052" height="22"></rect></clipPath><g><g><line x1="0" y1="0" x2="0" y2="5" style="visibility: inherit;" fill="rgb(0, 0, 0)" stroke="rgb(204, 204, 204)" stroke-width="1px"></line><line x1="87.68333333333334" y1="0" x2="87.68333333333334" y2="5" style="visibility: inherit;" fill="rgb(0, 0, 0)" stroke="rgb(204, 204, 204)" stroke-width="1px"></line><line x1="175.36666666666667" y1="0" x2="175.36666666666667" y2="5" style="visibility: inherit;" fill="rgb(0, 0, 0)" stroke="rgb(204, 204, 204)" stroke-width="1px"></line><line x1="263.05" y1="0" x2="263.05" y2="5" style="visibility: inherit;" fill="rgb(0, 0, 0)" stroke="rgb(204, 204, 204)" stroke-width="1px"></line><line x1="350.73333333333335" y1="0" x2="350.73333333333335" y2="5" style="visibility: inherit;" fill="rgb(0, 0, 0)" stroke="rgb(204, 204, 204)" stroke-width="1px"></line><line x1="438.4166666666667" y1="0" x2="438.4166666666667" y2="5" style="visibility: inherit;" fill="rgb(0, 0, 0)" stroke="rgb(204, 204, 204)" stroke-width="1px"></line><line x1="526.1" y1="0" x2="526.1" y2="5" style="visibility: inherit;" fill="rgb(0, 0, 0)" stroke="rgb(204, 204, 204)" stroke-width="1px"></line><line x1="613.7833333333334" y1="0" x2="613.7833333333334" y2="5" style="visibility: inherit;" fill="rgb(0, 0, 0)" stroke="rgb(204, 204, 204)" stroke-width="1px"></line><line x1="701.4666666666667" y1="0" x2="701.4666666666667" y2="5" style="visibility: inherit;" fill="rgb(0, 0, 0)" stroke="rgb(204, 204, 204)" stroke-width="1px"></line><line x1="789.1500000000001" y1="0" x2="789.1500000000001" y2="5" style="visibility: inherit;" fill="rgb(0, 0, 0)" stroke="rgb(204, 204, 204)" stroke-width="1px"></line><line x1="876.8333333333334" y1="0" x2="876.8333333333334" y2="5" style="visibility: inherit;" fill="rgb(0, 0, 0)" stroke="rgb(204, 204, 204)" stroke-width="1px"></line><line x1="964.5166666666667" y1="0" x2="964.5166666666667" y2="5" style="visibility: inherit;" fill="rgb(0, 0, 0)" stroke="rgb(204, 204, 204)" stroke-width="1px"></line><line x1="1052.2" y1="0" x2="1052.2" y2="5" style="visibility: inherit;" fill="rgb(0, 0, 0)" stroke="rgb(204, 204, 204)" stroke-width="1px"></line></g><g transform="translate(0, 8)"><text x="0" y="0" dx="0em" dy="0.95em" style="text-anchor: middle; visibility: hidden; font-family: &quot;Helvetica Neue&quot;, sans-serif; font-size: 12px; font-weight: 200;" fill="rgb(50, 49, 63)" stroke="none" stroke-width="1px">-500</text><text x="87.68333333333334" y="0" dx="0em" dy="0.95em" style="text-anchor: middle; visibility: inherit; font-family: &quot;Helvetica Neue&quot;, sans-serif; font-size: 12px; font-weight: 200;" fill="rgb(50, 49, 63)" stroke="none" stroke-width="1px">0</text><text x="175.36666666666667" y="0" dx="0em" dy="0.95em" style="text-anchor: middle; visibility: inherit; font-family: &quot;Helvetica Neue&quot;, sans-serif; font-size: 12px; font-weight: 200;" fill="rgb(50, 49, 63)" stroke="none" stroke-width="1px">500</text><text x="263.05" y="0" dx="0em" dy="0.95em" style="text-anchor: middle; visibility: inherit; font-family: &quot;Helvetica Neue&quot;, sans-serif; font-size: 12px; font-weight: 200;" fill="rgb(50, 49, 63)" stroke="none" stroke-width="1px">1k</text><text x="350.73333333333335" y="0" dx="0em" dy="0.95em" style="text-anchor: middle; visibility: inherit; font-family: &quot;Helvetica Neue&quot;, sans-serif; font-size: 12px; font-weight: 200;" fill="rgb(50, 49, 63)" stroke="none" stroke-width="1px">1.5k</text><text x="438.4166666666667" y="0" dx="0em" dy="0.95em" style="text-anchor: middle; visibility: inherit; font-family: &quot;Helvetica Neue&quot;, sans-serif; font-size: 12px; font-weight: 200;" fill="rgb(50, 49, 63)" stroke="none" stroke-width="1px">2k</text><text x="526.1" y="0" dx="0em" dy="0.95em" style="text-anchor: middle; visibility: inherit; font-family: &quot;Helvetica Neue&quot;, sans-serif; font-size: 12px; font-weight: 200;" fill="rgb(50, 49, 63)" stroke="none" stroke-width="1px">2.5k</text><text x="613.7833333333334" y="0" dx="0em" dy="0.95em" style="text-anchor: middle; visibility: inherit; font-family: &quot;Helvetica Neue&quot;, sans-serif; font-size: 12px; font-weight: 200;" fill="rgb(50, 49, 63)" stroke="none" stroke-width="1px">3k</text><text x="701.4666666666667" y="0" dx="0em" dy="0.95em" style="text-anchor: middle; visibility: inherit; font-family: &quot;Helvetica Neue&quot;, sans-serif; font-size: 12px; font-weight: 200;" fill="rgb(50, 49, 63)" stroke="none" stroke-width="1px">3.5k</text><text x="789.1500000000001" y="0" dx="0em" dy="0.95em" style="text-anchor: middle; visibility: inherit; font-family: &quot;Helvetica Neue&quot;, sans-serif; font-size: 12px; font-weight: 200;" fill="rgb(50, 49, 63)" stroke="none" stroke-width="1px">4k</text><text x="876.8333333333334" y="0" dx="0em" dy="0.95em" style="text-anchor: middle; visibility: inherit; font-family: &quot;Helvetica Neue&quot;, sans-serif; font-size: 12px; font-weight: 200;" fill="rgb(50, 49, 63)" stroke="none" stroke-width="1px">4.5k</text><text x="964.5166666666667" y="0" dx="0em" dy="0.95em" style="text-anchor: middle; visibility: inherit; font-family: &quot;Helvetica Neue&quot;, sans-serif; font-size: 12px; font-weight: 200;" fill="rgb(50, 49, 63)" stroke="none" stroke-width="1px">5k</text><text x="1052.2" y="0" dx="0em" dy="0.95em" style="text-anchor: middle; visibility: hidden; font-family: &quot;Helvetica Neue&quot;, sans-serif; font-size: 12px; font-weight: 200;" fill="rgb(50, 49, 63)" stroke="none" stroke-width="1px">5.5k</text></g><line x1="0" y1="0" x2="1052.2" y2="0" fill="rgb(0, 0, 0)" stroke="rgb(204, 204, 204)" stroke-width="1px"></line></g></g></g></g></svg>