<svg viewBox="0 0 1112.2000732421875 400" xmlns="http://www.w3.org/2000/svg"><g><g><g><g><g><line x1="60" y1="378" x2="55" y2="378" style="visibility: inherit;" fill="rgb(0, 0, 0)" stroke="rgb(204, 204, 204)" stroke-width="1px"></line><line x1="60" y1="340.2" x2="55" y2="340.2" style="visibility: inherit;" fill="rgb(0, 0, 0)" stroke="rgb(204, 204, 204)" stroke-width="1px"></line><line x1="60" y1="302.4" x2="55" y2="302.4" style="visibility: inherit;" fill="rgb(0, 0, 0)" stroke="rgb(204, 204, 204)" stroke-width="1px"></line><line x1="60" y1="264.6" x2="55" y2="264.6" style="visibility: inherit;" fill="rgb(0, 0, 0)" stroke="rgb(204, 204, 204)" stroke-width="1px"></line><line x1="60" y1="226.79999999999998" x2="55" y2="226.79999999999998" style="visibility: inherit;" fill="rgb(0, 0, 0)" stroke="rgb(204, 204, 204)" stroke-width="1px"></line><line x1="60" y1="189" x2="55" y2="189" style="visibility: inherit;" fill="rgb(0, 0, 0)" stroke="rgb(204, 204, 204)" stroke-width="1px"></line><line x1="60" y1="151.20000000000002" x2="55" y2="151.20000000000002" style="visibility: inherit;" fill="rgb(0, 0, 0)" stroke="rgb(204, 204, 204)" stroke-width="1px"></line><line x1="60" y1="113.40000000000003" x2="55" y2="113.40000000000003" style="visibility: inherit;" fill="rgb(0, 0, 0)" stroke="rgb(204, 204, 204)" stroke-width="1px"></line><line x1="60" y1="75.59999999999997" x2="55" y2="75.59999999999997" style="visibility: inherit;" fill="rgb(0, 0, 0)" stroke="rgb(204, 204, 204)" stroke-width="1px"></line><line x1="60" y1="37.80000000000001" x2="55" y2="37.80000000000001" style="visibility: inherit;" fill="rgb(0, 0, 0)" stroke="rgb(204, 204, 204)" stroke-width="1px"></line><line x1="60" y1="0" x2="55" y2="0" style="visibility: inherit;" fill="rgb(0, 0, 0)" stroke="rgb(204, 204, 204)" stroke-width="1px"></line></g><g transform="translate(50, 0)"><text x="0" y="378" dx="0em" dy="0.3em" style="text-anchor: end; visibility: hidden; font-family: &quot;Helvetica Neue&quot;, sans-serif; font-size: 12px; font-weight: 200;" fill="rgb(50, 49, 63)" stroke="none" stroke-width="1px">-12</text><text x="0" y="340.2" dx="0em" dy="0.3em" style="text-anchor: end; visibility: inherit; font-family: &quot;Helvetica Neue&quot;, sans-serif; font-size: 12px; font-weight: 200;" fill="rgb(50, 49, 63)" stroke="none" stroke-width="1px">-11.5</text><text x="0" y="302.4" dx="0em" dy="0.3em" style="text-anchor: end; visibility: inherit; font-family: &quot;Helvetica Neue&quot;, sans-serif; font-size: 12px; font-weight: 200;" fill="rgb(50, 49, 63)" stroke="none" stroke-width="1px">-11</text><text x="0" y="264.6" dx="0em" dy="0.3em" style="text-anchor: end; visibility: inherit; font-family: &quot;Helvetica Neue&quot;, sans-serif; font-size: 12px; font-weight: 200;" fill="rgb(50, 49, 63)" stroke="none" stroke-width="1px">-10.5</text><text x="0" y="226.79999999999998" dx="0em" dy="0.3em" style="text-anchor: end; visibility: inherit; font-family: &quot;Helvetica Neue&quot;, sans-serif; font-size: 12px; font-weight: 200;" fill="rgb(50, 49, 63)" stroke="none" stroke-width="1px">-10</text><text x="0" y="189" dx="0em" dy="0.3em" style="text-anchor: end; visibility: inherit; font-family: &quot;Helvetica Neue&quot;, sans-serif; font-size: 12px; font-weight: 200;" fill="rgb(50, 49, 63)" stroke="none" stroke-width="1px">-9.5</text><text x="0" y="151.20000000000002" dx="0em" dy="0.3em" style="text-anchor: end; visibility: inherit; font-family: &quot;Helvetica Neue&quot;, sans-serif; font-size: 12px; font-weight: 200;" fill="rgb(50, 49, 63)" stroke="none" stroke-width="1px">-9</text><text x="0" y="113.40000000000003" dx="0em" dy="0.3em" style="text-anchor: end; visibility: inherit; font-family: &quot;Helvetica Neue&quot;, sans-serif; font-size: 12px; font-weight: 200;" fill="rgb(50, 49, 63)" stroke="none" stroke-width="1px">-8.5</text><text x="0" y="75.59999999999997" dx="0em" dy="0.3em" style="text-anchor: end; visibility: inherit; font-family: &quot;Helvetica Neue&quot;, sans-serif; font-size: 12px; font-weight: 200;" fill="rgb(50, 49, 63)" stroke="none" stroke-width="1px">-8</text><text x="0" y="37.80000000000001" dx="0em" dy="0.3em" style="text-anchor: end; visibility: inherit; font-family: &quot;Helvetica Neue&quot;, sans-serif; font-size: 12px; font-weight: 200;" fill="rgb(50, 49, 63)" stroke="none" stroke-width="1px">-7.5</text><text x="0" y="0" dx="0em" dy="0.3em" style="text-anchor: end; visibility: hidden; font-family: &quot;Helvetica Neue&quot;, sans-serif; font-size: 12px; font-weight: 200;" fill="rgb(50, 49, 63)" stroke="none" stroke-width="1px">-7</text></g><line x1="60" y1="0" x2="60" y2="378" fill="rgb(0, 0, 0)" stroke="rgb(204, 204, 204)" stroke-width="1px"></line></g></g><g transform="translate(60, 0)" clip-path="url(#clip_0)"><clipPath id="clip_0"><rect width="1052" height="378"></rect></clipPath><g><g><g><line x1="0" y1="0" x2="0" y2="378" fill="rgb(0, 0, 0)" stroke="rgb(60, 60, 60)" stroke-width="1px" opacity="0.25"></line><line x1="87.68333333333334" y1="0" x2="87.68333333333334" y2="378" fill="rgb(0, 0, 0)" stroke="rgb(60, 60, 60)" stroke-width="1px" opacity="0.25"></line><line x1="175.36666666666667" y1="0" x2="175.36666666666667" y2="378" fill="rgb(0, 0, 0)" stroke="rgb(60, 60, 60)" stroke-width="1px" opacity="0.25"></line><line x1="263.05" y1="0" x2="263.05" y2="378" fill="rgb(0, 0, 0)" stroke="rgb(60, 60, 60)" stroke-width="1px" opacity="0.25"></line><line x1="350.73333333333335" y1="0" x2="350.73333333333335" y2="378" fill="rgb(0, 0, 0)" stroke="rgb(60, 60, 60)" stroke-width="1px" opacity="0.25"></line><line x1="438.4166666666667" y1="0" x2="438.4166666666667" y2="378" fill="rgb(0, 0, 0)" stroke="rgb(60, 60, 60)" stroke-width="1px" opacity="0.25"></line><line x1="526.1" y1="0" x2="526.1" y2="378" fill="rgb(0, 0, 0)" stroke="rgb(60, 60, 60)" stroke-width="1px" opacity="0.25"></line><line x1="613.7833333333334" y1="0" x2="613.7833333333334" y2="378" fill="rgb(0, 0, 0)" stroke="rgb(60, 60, 60)" stroke-width="1px" opacity="0.25"></line><line x1="701.4666666666667" y1="0" x2="701.4666666666667" y2="378" fill="rgb(0, 0, 0)" stroke="rgb(60, 60, 60)" stroke-width="1px" opacity="0.25"></line><line x1="789.1500000000001" y1="0" x2="789.1500000000001" y2="378" fill="rgb(0, 0, 0)" stroke="rgb(60, 60, 60)" stroke-width="1px" opacity="0.25"></line><line x1="876.8333333333334" y1="0" x2="876.8333333333334" y2="378" fill="rgb(0, 0, 0)" stroke="rgb(60, 60, 60)" stroke-width="1px" opacity="0.25"></line><line x1="964.5166666666667" y1="0" x2="964.5166666666667" y2="378" fill="rgb(0, 0, 0)" stroke="rgb(60, 60, 60)" stroke-width="1px" opacity="0.25"></line><line x1="1052.2" y1="0" x2="1052.2" y2="378" fill="rgb(0, 0, 0)" stroke="rgb(60, 60, 60)" stroke-width="1px" opacity="0.25"></line></g><g><line x1="0" y1="378" x2="1052.2" y2="378" fill="rgb(0, 0, 0)" stroke="rgb(60, 60, 60)" stroke-width="1px" opacity="0.25"></line><line x1="0" y1="340.2" x2="1052.2" y2="340.2" fill="rgb(0, 0, 0)" stroke="rgb(60, 60, 60)" stroke-width="1px" opacity="0.25"></line><line x1="0" y1="302.4" x2="1052.2" y2="302.4" fill="rgb(0, 0, 0)" stroke="rgb(60, 60, 60)" stroke-width="1px" opacity="0.25"></line><line x1="0" y1="264.6" x2="1052.2" y2="264.6" fill="rgb(0, 0, 0)" stroke="rgb(60, 60, 60)" stroke-width="1px" opacity="0.25"></line><line x1="0" y1="226.79999999999998" x2="1052.2" y2="226.79999999999998" fill="rgb(0, 0, 0)" stroke="rgb(60, 60, 60)" stroke-width="1px" opacity="0.25"></line><line x1="0" y1="189" x2="1052.2" y2="189" fill="rgb(0, 0, 0)" stroke="rgb(60, 60, 60)" stroke-width="1px" opacity="0.25"></line><line x1="0" y1="151.20000000000002" x2="1052.2" y2="151.20000000000002" fill="rgb(0, 0, 0)" stroke="rgb(60, 60, 60)" stroke-width="1px" opacity="0.25"></line><line x1="0" y1="113.40000000000003" x2="1052.2" y2="113.40000000000003" fill="rgb(0, 0, 0)" stroke="rgb(60, 60, 60)" stroke-width="1px" opacity="0.25"></line><line x1="0" y1="75.59999999999997" x2="1052.2" y2="75.59999999999997" fill="rgb(0, 0, 0)" stroke="rgb(60, 60, 60)" stroke-width="1px" opacity="0.25"></line><line x1="0" y1="37.80000000000001" x2="1052.2" y2="37.80000000000001" fill="rgb(0, 0, 0)" stroke="rgb(60, 60, 60)" stroke-width="1px" opacity="0.25"></line><line x1="0" y1="0" x2="1052.2" y2="0" fill="rgb(0, 0, 0)" stroke="rgb(60, 60, 60)" stroke-width="1px" opacity="0.25"></line></g></g></g><g><g><line x1="0" y1="-529.1999999999999" x2="1052.2" y2="-529.1999999999999" fill="rgb(0, 0, 0)" stroke="rgb(153, 153, 153)" stroke-width="1.5px"></line></g></g><g><g><line x1="87.68333333333334" y1="0" x2="87.68333333333334" y2="378" fill="rgb(0, 0, 0)" stroke="rgb(153, 153, 153)" stroke-width="1.5px"></line></g></g><g><g><g><g><g><path stroke="rgb(0, 119, 187)" stroke-width="2px" d="M87.85870000000001,340.3315063476563L96.62703333333334,323.82688293457034L105.39536666666667,327.53914604186997L114.1637,304.6469322975942L122.93203333333334,311.3931507515626L131.7003666666667,321.5233557711866L140.4687,301.8782956472756L149.23703333333336,297.1534183749693L158.00536666666667,294.9794885239426L166.77370000000002,276.53452882233046L175.54203333333334,301.6335511676592L184.31036666666668,293.39999108297786L193.0787,284.0182740079189L201.84703333333334,259.64585777924975L210.61536666666666,241.80743648329184L219.3837,252.10654096452848L228.15203333333332,240.08952569233767L236.92036666666667,231.8947975268409L245.6887,216.97348056262595L254.45703333333336,222.36097766530057L263.2253666666667,231.76156546345382L271.99370000000005,222.2091135043474L280.7620333333333,212.63554416960122L289.5303666666667,208.25912345259871L298.2987,193.44664869510686L307.06703333333337,183.53176685975137L315.8353666666667,189.39103480171997L324.6037,177.21868231475204L333.3720333333334,162.91215626595576L342.1403666666667,146.86297884066917L350.9087,159.0147931582144L359.6770333333333,166.1135526683911L368.4453666666667,167.9582821407843L377.2137,163.9290180887052L385.98203333333333,159.0417647120788L394.75036666666665,197.96958513818902L403.5187,184.80341695602255L412.28703333333334,177.1070606735999L421.0553666666667,164.9363124878843L429.8237,167.33891670736796L438.59203333333335,162.76423686157196L447.3603666666667,173.8595492023607L456.12870000000004,191.2786277808405L464.89703333333335,183.9832356272013L473.66536666666667,156.70561184467675L482.43370000000004,147.12193888355205L491.20203333333336,147.07804354863555L499.9703666666667,150.52263759166095L508.7387,163.16158151756918L517.5070333333333,151.80463079521547L526.2753666666666,141.21787201345495L535.0437,129.6817846094065L543.8120333333334,154.47210924835318L552.5803666666667,160.56476579315893L561.3487,141.76017142656715L570.1170333333333,145.1932058222503L578.8853666666668,155.261878388372L587.6537000000001,164.32945827081738L596.4220333333333,158.78086282870083L605.1903666666667,149.46885888374354L613.9587,148.87001528141803L622.7270333333333,148.48423481582353L631.4953666666667,149.58484508871274L640.2637000000001,140.35022376465344L649.0320333333334,133.83480436377252L657.8003666666667,136.77997502549013L666.5686999999999,131.69576974429796L675.3370333333334,134.8706301815396L684.1053666666667,142.13316118997835L692.8737,144.73117677380156L701.6420333333333,146.86991181379264L710.4103666666667,133.30819144252365L719.1787,158.08878418924468L727.9470333333334,151.6835656185272L736.7153666666668,138.6074487888409L745.4837,137.87249417564823L754.2520333333333,124.35846385158032L763.0203666666666,103.85551471231543L771.7887000000001,135.13367992113922L780.5570333333334,143.20239346904097L789.3253666666667,143.87005424548707L798.0937,142.61568946867894L806.8620333333334,128.7459757234436L815.6303666666668,123.42984617625368L824.3987,122.9591198639553L833.1670333333333,134.52185878971108L841.9353666666667,138.63309620034025L850.7037,136.90337304002836L859.4720333333333,127.5125500996518L868.2403666666668,117.0469572448497L877.0087000000001,107.31175314329653L885.7770333333334,109.69398792113418L894.5453666666666,122.2356728430126L903.3137,128.1223915598115L912.0820333333334,114.87020419247858L920.8503666666667,123.72404756431524L929.6187,113.55329801490745L938.3870333333334,109.62635548741122L947.1553666666667,104.26025192159716L955.9237,108.89189364563401L964.6920333333334,97.39101967126714" style="fill: none;" fill="none"></path></g><g><path stroke="rgb(255, 112, 67)" stroke-width="2px" d="M87.85870000000001,303.79732704162586L96.62703333333334,303.2221219539641L105.39536666666667,300.9164690290178L114.1637,295.2874301181119L122.93203333333334,306.13714260892834L131.7003666666667,292.24587022272254L140.4687,281.72762478166806L149.23703333333336,271.3238485914193L158.00536666666667,283.73653144164086L166.77370000000002,272.9648588847102L175.54203333333334,275.5718257835995L184.31036666666668,263.69544033817886L193.0787,239.62413045532386L201.84703333333334,235.53360476766446L210.61536666666666,237.6155112486012L219.3837,226.75216462606906L228.15203333333332,217.13622553122022L236.92036666666667,217.3879895255678L245.6887,204.59190411013117L254.45703333333336,205.59520920831736L263.2253666666667,198.16290639162176L271.99370000000005,209.02959783223508L280.7620333333333,201.8149877951623L289.5303666666667,199.24784602203394L298.2987,196.238932823442L307.06703333333337,191.5192778516922L315.8353666666667,186.49058194993572L324.6037,190.92597542886725L333.3720333333334,181.45254358928224L342.1403666666667,173.81997173183177L350.9087,181.93131303347965L359.6770333333333,182.94224111709696L368.4453666666667,181.6897710325694L377.2137,161.58456272709736L385.98203333333333,176.23833737547187L394.75036666666665,171.83766012525402L403.5187,186.19989993600797L412.28703333333334,178.84233709004658L421.0553666666667,168.79136811298292L429.8237,165.94592239596855L438.59203333333335,147.6987036304654L447.3603666666667,154.2772269421872L456.12870000000004,187.05621364670068L464.89703333333335,162.2848999061411L473.66536666666667,138.05906158423286L482.43370000000004,132.3673604731339L491.20203333333336,129.89180269736198L499.9703666666667,117.3424583271198L508.7387,108.02355788188845L517.5070333333333,100.53584417121135L526.2753666666666,104.4391175867301L535.0437,96.0156432509882L543.8120333333334,108.0903469491492L552.5803666666667,120.86149271540131L561.3487,106.1468178094072L570.1170333333333,110.54530198935703L578.8853666666668,96.80126826026151L587.6537000000001,91.37609176670298L596.4220333333333,86.76171203633987L605.1903666666667,94.73689324963635L613.9587,88.77900042121718L622.7270333333333,94.4080363916463L631.4953666666667,85.48825902981196L640.2637000000001,89.19717996622705L649.0320333333334,107.33402193847661L657.8003666666667,85.72289851464848L666.5686999999999,88.6974758336425L675.3370333333334,92.04299493011717L684.1053666666667,92.30242552862683L692.8737,94.47056359354343L701.6420333333333,81.8082985443096L710.4103666666667,72.17945483459351L719.1787,79.4596330447992L727.9470333333334,79.04223551535597L736.7153666666668,83.78523144593237L745.4837,96.7595844547177L754.2520333333333,92.65766626120956L763.0203666666666,92.35636290980193L771.7887000000001,86.47965453787327L780.5570333333334,62.156390897772724L789.3253666666667,57.913885655606975L798.0937,76.34632699883298L806.8620333333334,77.97260500667284L815.6303666666668,70.69412788437484L824.3987,72.19043669156235L833.1670333333333,78.94769493730064L841.9353666666667,72.71092836374754L850.7037,64.58065156170562L859.4720333333333,61.790379462413966L868.2403666666668,59.86312416182335L877.0087000000001,55.68264408937921L885.7770333333334,62.53414730567823L894.5453666666666,51.54465983116086L903.3137,47.82076173426776L912.0820333333334,51.33577369095127L920.8503666666667,57.45384992624071L929.6187,60.2679000894114L938.3870333333334,52.25157989739682L947.1553666666667,70.9151517348248L955.9237,77.0777552865004L964.6920333333334,72.34255939138262" style="fill: none;" fill="none"></path></g><g><path stroke="rgb(204, 51, 17)" stroke-width="2px" d="M87.85870000000001,363.1963794708252L96.62703333333334,335.21685390472413L105.39536666666667,311.4240168980189L114.1637,296.20646235381844L122.93203333333334,309.913035997527L131.7003666666667,303.1110888488311L140.4687,294.7013436722408L149.23703333333336,281.11626785981457L158.00536666666667,310.5150821008359L166.77370000000002,313.8972323738132L175.54203333333334,307.965099681875L184.31036666666668,299.7387387188738L193.0787,295.93741738838213L201.84703333333334,278.75500181204296L210.61536666666666,259.22899206459863L219.3837,248.43158672086832L228.15203333333332,250.94614112083292L236.92036666666667,240.21917321451613L245.6887,239.93518749046214L254.45703333333336,234.0027438918592L263.2253666666667,252.35775745371825L271.99370000000005,249.52233230080776L280.7620333333333,249.29283024626014L289.5303666666667,262.32065062560736L298.2987,249.0095084457104L307.06703333333337,237.28635920317643L315.8353666666667,245.63654910486602L324.6037,242.0483289317776L333.3720333333334,225.01432479249328L342.1403666666667,216.22079935237528L350.9087,207.1462566364982L359.6770333333333,204.31403824135538L368.4453666666667,210.631634611237L377.2137,199.953263602884L385.98203333333333,197.83888531044136L394.75036666666665,200.86451743573426L403.5187,203.09327651527263L412.28703333333334,180.18854791639907L421.0553666666667,182.48965829598168L429.8237,181.94508312383365L438.59203333333335,180.6832875136689L447.3603666666667,179.90351376759182L456.12870000000004,181.3914315336899L464.89703333333335,175.58701956373955L473.66536666666667,176.943979011334L482.43370000000004,181.29910728622238L491.20203333333336,184.74618251151088L499.9703666666667,186.1070042457067L508.7387,177.28189023041068L517.5070333333333,164.9783986645142L526.2753666666666,160.69324937324822L535.0437,163.32291861809716L543.8120333333334,167.95680079244852L552.5803666666667,170.24579815735623L561.3487,196.43095484657871L570.1170333333333,222.31599707177543L578.8853666666668,211.63002075893192L587.6537000000001,174.37163122976818L596.4220333333333,162.65151007941282L605.1903666666667,154.42962217313553L613.9587,161.30062608708465L622.7270333333333,154.5814817618697L631.4953666666667,136.83076848217044L640.2637000000001,144.48665856855044L649.0320333333334,145.319947411638L657.8003666666667,138.15451376558636L666.5686999999999,142.07572690559206L675.3370333333334,140.31893910356035L684.1053666666667,129.00647729270253L692.8737,119.18953807850244L701.6420333333333,131.01483689129086L710.4103666666667,135.36473465430578L719.1787,141.36280746738825L727.9470333333334,142.45821441817705L736.7153666666668,143.46893957619923L745.4837,145.6559021673505L754.2520333333333,157.83785801183612L763.0203666666666,156.61224071652558L771.7887000000001,148.69365332884104L780.5570333333334,141.56935926415036L789.3253666666667,141.37318111024808L798.0937,131.85271268226217L806.8620333333334,142.2971688386053L815.6303666666668,129.3462950775772L824.3987,122.19139933048197L833.1670333333333,125.9153310838849L841.9353666666667,128.7508990897841L850.7037,133.4951122077766L859.4720333333333,131.42347571089638L868.2403666666668,136.4442334367918L877.0087000000001,116.11301360333476L885.7770333333334,119.63419289710828L894.5453666666666,125.20000914646803L903.3137,125.23964126058587L912.0820333333334,131.388991970707L920.8503666666667,124.48429529839103L929.6187,117.1278486023744L938.3870333333334,119.47262819828995L947.1553666666667,130.06221507205007L955.9237,120.19581277736091L964.6920333333334,126.05210528116262" style="fill: none;" fill="none"></path></g></g></g></g><g opacity="0.2"><g><g><g><path stroke="rgb(0, 119, 187)" stroke-width="2px" d="M87.85870000000001,340.3315063476563L96.62703333333334,313.9241088867187L105.39536666666667,331.10291862487793L114.1637,277.7256889343262L122.93203333333334,320.2010135650635L131.7003666666667,335.5370761871338L140.4687,273.7855453491211L149.23703333333336,290.264501953125L158.00536666666667,291.7733642578125L166.77370000000002,249.14591331481935L175.54203333333334,339.05443840026857L184.31036666666668,281.0944576263428L193.0787,269.9763313293457L201.84703333333334,223.13498153686524L210.61536666666666,215.07077293395994L219.3837,267.5479339599609L228.15203333333332,222.06908798217773L236.92036666666667,219.60478591918945L245.6887,194.59377822875976L254.45703333333336,230.4417308807373L263.2253666666667,245.8619316101074L271.99370000000005,207.8807498931885L280.7620333333333,198.2753791809082L289.5303666666667,201.6945442199707L298.2987,171.22804183959963L307.06703333333337,168.65948638916015L315.8353666666667,198.1799217224121L324.6037,158.9601722717285L333.3720333333334,141.45238037109377L342.1403666666667,122.78922157287596L350.9087,177.24251060485838L359.6770333333333,176.76169052124024L368.4453666666667,170.7253761291504L377.2137,157.88512229919434L385.98203333333333,151.71088485717772L394.75036666666665,256.36131477355957L403.5187,165.0541648864746L412.28703333333334,165.56252632141113L421.0553666666667,146.68019027709963L429.8237,170.94282302856445L438.59203333333335,155.9022171020508L447.3603666666667,190.5025177001953L456.12870000000004,217.40724563598633L464.89703333333335,173.04014739990234L473.66536666666667,115.7891761779785L482.43370000000004,132.74642944335938L491.20203333333336,147.01220054626467L499.9703666666667,155.68952865600588L508.7387,182.11999740600587L517.5070333333333,134.76920471191406L526.2753666666666,125.33773384094238L535.0437,112.377653503418L543.8120333333334,191.65759620666503L552.5803666666667,169.70375061035156L561.3487,113.55327987670898L570.1170333333333,150.3427574157715L578.8853666666668,170.36488723754883L587.6537000000001,177.93082809448242L596.4220333333333,150.45796966552734L605.1903666666667,135.5008529663086L613.9587,147.97174987792968L622.7270333333333,147.90556411743162L631.4953666666667,151.23576049804686L640.2637000000001,126.49829177856444L649.0320333333334,124.06167526245119L657.8003666666667,141.1977310180664L666.5686999999999,124.06946182250977L675.3370333333334,139.63292083740234L684.1053666666667,153.02695770263674L692.8737,148.62820014953613L701.6420333333333,150.0780143737793L710.4103666666667,112.96561088562015L719.1787,195.2596733093262L727.9470333333334,142.07573776245115L736.7153666666668,118.99327354431153L745.4837,136.77006225585936L754.2520333333333,104.08741836547853L763.0203666666666,73.10109100341793L771.7887000000001,182.050927734375L780.5570333333334,155.30546379089355L789.3253666666667,144.87154541015624L798.0937,140.7341423034668L806.8620333333334,107.94140510559083L815.6303666666668,115.45565185546872L824.3987,122.2530303955078L833.1670333333333,151.86596717834473L841.9353666666667,144.79995231628416L850.7037,134.30878829956055L859.4720333333333,113.42631568908695L868.2403666666668,101.34856796264648L877.0087000000001,92.70894699096681L885.7770333333334,113.26734008789066L894.5453666666666,141.04820022583007L903.3137,136.95246963500975L912.0820333333334,94.9919231414795L920.8503666666667,137.00481262207032L929.6187,98.29717369079589L938.3870333333334,103.735941696167L947.1553666666667,96.21109657287599L955.9237,115.83935623168946L964.6920333333334,80.13970870971679" style="fill: none;" fill="none"></path></g><g><path stroke="rgb(255, 112, 67)" stroke-width="2px" d="M87.85870000000001,303.797327041626L96.62703333333334,302.8769989013672L105.39536666666667,298.7030422210693L114.1637,288.66768035888674L122.93203333333334,320.3025272369385L131.7003666666667,273.029239654541L140.4687,266.6863655090332L149.23703333333336,256.15504302978513L158.00536666666667,302.0428276062012L166.77370000000002,256.9701805114746L175.54203333333334,279.4586311340332L184.31036666666668,245.94549293518068L193.0787,203.59576263427735L201.84703333333334,229.40583000183105L210.61536666666666,240.73592376708984L219.3837,210.46480636596678L228.15203333333332,202.7163860321045L236.92036666666667,217.76557159423828L245.6887,185.39972534179688L254.45703333333336,207.10007514953614L263.2253666666667,187.0148597717285L271.99370000000005,225.32927742004395L280.7620333333333,190.99321517944335L289.5303666666667,195.397163772583L298.2987,191.7255844116211L307.06703333333337,184.43981552124023L315.8353666666667,178.9475509643555L324.6037,197.57905883789064L333.3720333333334,167.2424045562744L342.1403666666667,162.3711181640625L350.9087,194.09832229614258L359.6770333333333,184.45863304138183L368.4453666666667,179.81106605529786L377.2137,131.42675170898437L385.98203333333333,198.2189987182617L394.75036666666665,165.23664436340331L403.5187,207.74325942993164L412.28703333333334,167.80599288940428L421.0553666666667,153.71491470336915L429.8237,161.67775382995606L438.59203333333335,120.32787551879886L447.3603666666667,164.14501190185547L456.12870000000004,236.22469367980958L464.89703333333335,125.12792930603027L473.66536666666667,101.72030410766598L482.43370000000004,123.82980880737304L491.20203333333336,126.17846603393556L499.9703666666667,98.5184417724609L508.7387,94.04520721435546L517.5070333333333,89.30427360534668L526.2753666666666,110.29402770996097L535.0437,83.38043174743649L543.8120333333334,126.2024024963379L552.5803666666667,140.0182113647461L561.3487,84.07480545043944L570.1170333333333,117.14302825927734L578.8853666666668,76.18521766662599L587.6537000000001,83.23832702636719L596.4220333333333,79.84014244079589L605.1903666666667,106.69966506958008L613.9587,79.84216117858887L622.7270333333333,102.85159034729003L631.4953666666667,72.10859298706055L640.2637000000001,94.76056137084964L649.0320333333334,134.5392848968506L657.8003666666667,53.30621337890625L666.5686999999999,93.15934181213379L675.3370333333334,97.0612735748291L684.1053666666667,92.69157142639159L692.8737,97.72277069091797L701.6420333333333,62.81490097045895L710.4103666666667,57.736189270019565L719.1787,90.37990036010746L727.9470333333334,78.41613922119137L736.7153666666668,90.89972534179691L745.4837,116.22111396789552L754.2520333333333,86.50478897094723L763.0203666666666,91.90440788269046L771.7887000000001,77.66459197998046L780.5570333333334,25.67149543762207L789.3253666666667,51.55012779235841L798.0937,103.99498901367184L806.8620333333334,80.41202201843265L815.6303666666668,59.77641220092772L824.3987,74.43489990234372L833.1670333333333,89.08358230590824L841.9353666666667,63.35577850341798L850.7037,52.385236358642544L859.4720333333333,57.6049713134766L868.2403666666668,56.97224121093751L877.0087000000001,49.41192398071286L885.7770333333334,72.81140213012696L894.5453666666666,35.060428619384766L903.3137,42.234914588928234L912.0820333333334,56.60829162597656L920.8503666666667,66.6309642791748L929.6187,64.48897533416749L938.3870333333334,40.22709960937499L947.1553666666667,98.91050949096683L955.9237,86.32166061401364L964.6920333333334,65.23976554870609" style="fill: none;" fill="none"></path></g><g><path stroke="rgb(204, 51, 17)" stroke-width="2px" d="M87.85870000000001,363.1963794708252L96.62703333333334,318.42913856506345L105.39536666666667,288.58289337158203L114.1637,278.3106182098389L122.93203333333334,327.8083385467529L131.7003666666667,293.70154724121096L140.4687,282.67527351379397L149.23703333333336,261.30909690856936L158.00536666666667,353.87262268066405L166.77370000000002,318.9193313598633L175.54203333333334,299.1207046508789L184.31036666666668,287.44396476745607L193.0787,290.247847366333L201.84703333333334,253.0150405883789L210.61536666666666,229.9629295349121L219.3837,232.24309387207032L228.15203333333332,254.71690864562987L236.92036666666667,224.13144493103027L245.6887,239.50925216674804L254.45703333333336,225.10462074279783L263.2253666666667,279.8892711639404L271.99370000000005,245.26928787231444L280.7620333333333,248.94858169555664L289.5303666666667,281.86222686767576L298.2987,229.04288978576662L307.06703333333337,219.70168533325196L315.8353666666667,258.16181259155275L324.6037,236.6660041809082L333.3720333333334,199.463334274292L342.1403666666667,203.0305160522461L350.9087,193.5344455718994L359.6770333333333,200.06571121215822L368.4453666666667,220.10802841186523L377.2137,183.9357078552246L385.98203333333333,194.66731796264648L394.75036666666665,205.4029655456543L403.5187,206.43641510009766L412.28703333333334,145.8314552307129L421.0553666666667,185.94132385253906L429.8237,181.12822036743162L438.59203333333335,178.79059410095215L447.3603666666667,178.73385314941405L456.12870000000004,183.6233081817627L464.89703333333335,166.88040161132812L473.66536666666667,178.97941818237305L482.43370000000004,187.831799697876L491.20203333333336,189.9167953491211L499.9703666666667,188.14823684692382L508.7387,164.0442192077637L517.5070333333333,146.52316131591797L526.2753666666666,154.26552543640136L535.0437,167.26742248535155L543.8120333333334,174.90762405395506L552.5803666666667,173.6792942047119L561.3487,235.7086898803711L570.1170333333333,261.1435604095459L578.8853666666668,195.60105628967287L587.6537000000001,118.48404693603516L596.4220333333333,145.07132835388185L605.1903666666667,142.0967903137207L613.9587,171.6071319580078L622.7270333333333,144.50276527404785L631.4953666666667,110.20469856262207L640.2637000000001,155.97049369812012L649.0320333333334,146.56988067626955L657.8003666666667,127.40636329650877L666.5686999999999,147.9575466156006L675.3370333333334,137.6837574005127L684.1053666666667,112.03778457641602L692.8737,104.46412925720216L701.6420333333333,148.75278511047364L710.4103666666667,141.88958129882812L719.1787,150.35991668701172L727.9470333333334,144.10132484436033L736.7153666666668,144.98502731323242L745.4837,148.93634605407715L754.2520333333333,176.11079177856445L763.0203666666666,154.77381477355956L771.7887000000001,136.81577224731447L780.5570333333334,130.88291816711424L789.3253666666667,141.07891387939455L798.0937,117.5720100402832L806.8620333333334,157.96385307312013L815.6303666666668,109.91998443603512L824.3987,111.45905570983888L833.1670333333333,131.50122871398926L841.9353666666667,133.0042510986328L850.7037,140.6114318847656L859.4720333333333,128.31602096557617L868.2403666666668,143.97537002563476L877.0087000000001,85.61618385314938L885.7770333333334,124.91596183776855L894.5453666666666,133.5487335205078L903.3137,125.2990894317627L912.0820333333334,140.61301803588867L920.8503666666667,114.12725028991696L929.6187,106.09317855834962L938.3870333333334,122.98979759216309L947.1553666666667,145.94659538269045L955.9237,105.39620933532711L964.6920333333334,134.83654403686523" style="fill: none;" fill="none"></path></g></g></g></g></g></g><g transform="translate(60, 378)" clip-path="url(#clip_1)"><clipPath id="clip_1"><rect width="1052" height="22"></rect></clipPath><g><g><line x1="0" y1="0" x2="0" y2="5" style="visibility: inherit;" fill="rgb(0, 0, 0)" stroke="rgb(204, 204, 204)" stroke-width="1px"></line><line x1="87.68333333333334" y1="0" x2="87.68333333333334" y2="5" style="visibility: inherit;" fill="rgb(0, 0, 0)" stroke="rgb(204, 204, 204)" stroke-width="1px"></line><line x1="175.36666666666667" y1="0" x2="175.36666666666667" y2="5" style="visibility: inherit;" fill="rgb(0, 0, 0)" stroke="rgb(204, 204, 204)" stroke-width="1px"></line><line x1="263.05" y1="0" x2="263.05" y2="5" style="visibility: inherit;" fill="rgb(0, 0, 0)" stroke="rgb(204, 204, 204)" stroke-width="1px"></line><line x1="350.73333333333335" y1="0" x2="350.73333333333335" y2="5" style="visibility: inherit;" fill="rgb(0, 0, 0)" stroke="rgb(204, 204, 204)" stroke-width="1px"></line><line x1="438.4166666666667" y1="0" x2="438.4166666666667" y2="5" style="visibility: inherit;" fill="rgb(0, 0, 0)" stroke="rgb(204, 204, 204)" stroke-width="1px"></line><line x1="526.1" y1="0" x2="526.1" y2="5" style="visibility: inherit;" fill="rgb(0, 0, 0)" stroke="rgb(204, 204, 204)" stroke-width="1px"></line><line x1="613.7833333333334" y1="0" x2="613.7833333333334" y2="5" style="visibility: inherit;" fill="rgb(0, 0, 0)" stroke="rgb(204, 204, 204)" stroke-width="1px"></line><line x1="701.4666666666667" y1="0" x2="701.4666666666667" y2="5" style="visibility: inherit;" fill="rgb(0, 0, 0)" stroke="rgb(204, 204, 204)" stroke-width="1px"></line><line x1="789.1500000000001" y1="0" x2="789.1500000000001" y2="5" style="visibility: inherit;" fill="rgb(0, 0, 0)" stroke="rgb(204, 204, 204)" stroke-width="1px"></line><line x1="876.8333333333334" y1="0" x2="876.8333333333334" y2="5" style="visibility: inherit;" fill="rgb(0, 0, 0)" stroke="rgb(204, 204, 204)" stroke-width="1px"></line><line x1="964.5166666666667" y1="0" x2="964.5166666666667" y2="5" style="visibility: inherit;" fill="rgb(0, 0, 0)" stroke="rgb(204, 204, 204)" stroke-width="1px"></line><line x1="1052.2" y1="0" x2="1052.2" y2="5" style="visibility: inherit;" fill="rgb(0, 0, 0)" stroke="rgb(204, 204, 204)" stroke-width="1px"></line></g><g transform="translate(0, 8)"><text x="0" y="0" dx="0em" dy="0.95em" style="text-anchor: middle; visibility: hidden; font-family: &quot;Helvetica Neue&quot;, sans-serif; font-size: 12px; font-weight: 200;" fill="rgb(50, 49, 63)" stroke="none" stroke-width="1px">-500</text><text x="87.68333333333334" y="0" dx="0em" dy="0.95em" style="text-anchor: middle; visibility: inherit; font-family: &quot;Helvetica Neue&quot;, sans-serif; font-size: 12px; font-weight: 200;" fill="rgb(50, 49, 63)" stroke="none" stroke-width="1px">0</text><text x="175.36666666666667" y="0" dx="0em" dy="0.95em" style="text-anchor: middle; visibility: inherit; font-family: &quot;Helvetica Neue&quot;, sans-serif; font-size: 12px; font-weight: 200;" fill="rgb(50, 49, 63)" stroke="none" stroke-width="1px">500</text><text x="263.05" y="0" dx="0em" dy="0.95em" style="text-anchor: middle; visibility: inherit; font-family: &quot;Helvetica Neue&quot;, sans-serif; font-size: 12px; font-weight: 200;" fill="rgb(50, 49, 63)" stroke="none" stroke-width="1px">1k</text><text x="350.73333333333335" y="0" dx="0em" dy="0.95em" style="text-anchor: middle; visibility: inherit; font-family: &quot;Helvetica Neue&quot;, sans-serif; font-size: 12px; font-weight: 200;" fill="rgb(50, 49, 63)" stroke="none" stroke-width="1px">1.5k</text><text x="438.4166666666667" y="0" dx="0em" dy="0.95em" style="text-anchor: middle; visibility: inherit; font-family: &quot;Helvetica Neue&quot;, sans-serif; font-size: 12px; font-weight: 200;" fill="rgb(50, 49, 63)" stroke="none" stroke-width="1px">2k</text><text x="526.1" y="0" dx="0em" dy="0.95em" style="text-anchor: middle; visibility: inherit; font-family: &quot;Helvetica Neue&quot;, sans-serif; font-size: 12px; font-weight: 200;" fill="rgb(50, 49, 63)" stroke="none" stroke-width="1px">2.5k</text><text x="613.7833333333334" y="0" dx="0em" dy="0.95em" style="text-anchor: middle; visibility: inherit; font-family: &quot;Helvetica Neue&quot;, sans-serif; font-size: 12px; font-weight: 200;" fill="rgb(50, 49, 63)" stroke="none" stroke-width="1px">3k</text><text x="701.4666666666667" y="0" dx="0em" dy="0.95em" style="text-anchor: middle; visibility: inherit; font-family: &quot;Helvetica Neue&quot;, sans-serif; font-size: 12px; font-weight: 200;" fill="rgb(50, 49, 63)" stroke="none" stroke-width="1px">3.5k</text><text x="789.1500000000001" y="0" dx="0em" dy="0.95em" style="text-anchor: middle; visibility: inherit; font-family: &quot;Helvetica Neue&quot;, sans-serif; font-size: 12px; font-weight: 200;" fill="rgb(50, 49, 63)" stroke="none" stroke-width="1px">4k</text><text x="876.8333333333334" y="0" dx="0em" dy="0.95em" style="text-anchor: middle; visibility: inherit; font-family: &quot;Helvetica Neue&quot;, sans-serif; font-size: 12px; font-weight: 200;" fill="rgb(50, 49, 63)" stroke="none" stroke-width="1px">4.5k</text><text x="964.5166666666667" y="0" dx="0em" dy="0.95em" style="text-anchor: middle; visibility: inherit; font-family: &quot;Helvetica Neue&quot;, sans-serif; font-size: 12px; font-weight: 200;" fill="rgb(50, 49, 63)" stroke="none" stroke-width="1px">5k</text><text x="1052.2" y="0" dx="0em" dy="0.95em" style="text-anchor: middle; visibility: hidden; font-family: &quot;Helvetica Neue&quot;, sans-serif; font-size: 12px; font-weight: 200;" fill="rgb(50, 49, 63)" stroke="none" stroke-width="1px">5.5k</text></g><line x1="0" y1="0" x2="1052.2" y2="0" fill="rgb(0, 0, 0)" stroke="rgb(204, 204, 204)" stroke-width="1px"></line></g></g></g></g></svg>